<?xml version="1.0" encoding="UTF-8" standalone="no"?>
<!DOCTYPE svg PUBLIC "-//W3C//DTD SVG 1.1//EN"
 "http://www.w3.org/Graphics/SVG/1.1/DTD/svg11.dtd">
<!-- Generated by graphviz version 2.42.3 ()
 -->
<!-- Title: graphname Pages: 1 -->
<svg width="359pt" height="465pt"
 viewBox="0.00 0.00 359.00 465.00" xmlns="http://www.w3.org/2000/svg" xmlns:xlink="http://www.w3.org/1999/xlink">
<g id="graph0" class="graph" transform="scale(1 1) rotate(0) translate(4 461)">
<title>graphname</title>
<polygon fill="#fafafa" stroke="transparent" points="-4,4 -4,-461 355,-461 355,4 -4,4"/>
<g id="clust1" class="cluster">
<title>cluster_google</title>
<polygon fill="#f5f5f5" stroke="#f5f5f5" points="8,-8 8,-449 343,-449 343,-8 8,-8"/>
<text text-anchor="start" x="119.5" y="-23" font-family="Helvetica,sans-Serif" font-weight="bold" font-size="20.00" fill="#707070">Provider google</text>
</g>
<g id="clust2" class="cluster">
<title>cluster_google_</title>
<polygon fill="#eeeeee" stroke="#eeeeee" points="16,-54 16,-441 335,-441 335,-54 16,-54"/>
<text text-anchor="start" x="171.5" y="-58.2" font-family="Helvetica,sans-Serif" font-size="1.00" fill="#383838"> </text>
</g>
<!-- Network::::5680022698000383250 -->
<g id="node1" class="node">
<title>Network::::5680022698000383250</title>
<polygon fill="#e5e5e5" stroke="#dddddd" points="327,-281 250,-281 250,-223 327,-223 327,-281"/>
<text text-anchor="start" x="262.5" y="-261.2" font-family="Helvetica,sans-Serif" font-weight="bold" font-size="16.00" fill="#707070">Network</text>
<text text-anchor="start" x="262.5" y="-236.2" font-family="Helvetica,sans-Serif" font-size="16.00" fill="#383838">default</text>
</g>
<!-- Firewall::::7304994523283192538 -->
<g id="node2" class="node">
<title>Firewall::::7304994523283192538</title>
<polygon fill="#e5e5e5" stroke="#dddddd" points="199,-433 39,-433 39,-375 199,-375 199,-433"/>
<text text-anchor="start" x="51" y="-413.2" font-family="Helvetica,sans-Serif" font-weight="bold" font-size="16.00" fill="#707070">Firewall</text>
<text text-anchor="start" x="51" y="-388.2" font-family="Helvetica,sans-Serif" font-size="16.00" fill="#383838">default&#45;allow&#45;icmp</text>
</g>
<!-- Firewall::::7304994523283192538&#45;&gt;Network::::5680022698000383250 -->
<g id="edge1" class="edge">
<title>Firewall::::7304994523283192538&#45;&gt;Network::::5680022698000383250</title>
<path fill="none" stroke="#707070" d="M199.06,-376.44C204.34,-373.29 209.39,-369.81 214,-366 238.62,-345.64 257.78,-314.84 270.36,-290.39"/>
<polygon fill="#707070" stroke="#707070" points="273.54,-291.87 274.86,-281.36 267.27,-288.75 273.54,-291.87"/>
</g>
<!-- Firewall::::5070337938415942362 -->
<g id="node3" class="node">
<title>Firewall::::5070337938415942362</title>
<polygon fill="#e5e5e5" stroke="#dddddd" points="214,-357 24,-357 24,-299 214,-299 214,-357"/>
<text text-anchor="start" x="36" y="-337.2" font-family="Helvetica,sans-Serif" font-weight="bold" font-size="16.00" fill="#707070">Firewall</text>
<text text-anchor="start" x="36" y="-312.2" font-family="Helvetica,sans-Serif" font-size="16.00" fill="#383838">default&#45;allow&#45;internal</text>
</g>
<!-- Firewall::::5070337938415942362&#45;&gt;Network::::5680022698000383250 -->
<g id="edge2" class="edge">
<title>Firewall::::5070337938415942362&#45;&gt;Network::::5680022698000383250</title>
<path fill="none" stroke="#707070" d="M193.66,-298.99C200.57,-296.04 207.44,-293.01 214,-290 222.72,-285.99 231.89,-281.49 240.69,-277.02"/>
<polygon fill="#707070" stroke="#707070" points="242.39,-280.09 249.68,-272.4 239.19,-273.86 242.39,-280.09"/>
</g>
<!-- Firewall::::7928229913276447450 -->
<g id="node4" class="node">
<title>Firewall::::7928229913276447450</title>
<polygon fill="#e5e5e5" stroke="#dddddd" points="195,-281 43,-281 43,-223 195,-223 195,-281"/>
<text text-anchor="start" x="55" y="-261.2" font-family="Helvetica,sans-Serif" font-weight="bold" font-size="16.00" fill="#707070">Firewall</text>
<text text-anchor="start" x="55" y="-236.2" font-family="Helvetica,sans-Serif" font-size="16.00" fill="#383838">default&#45;allow&#45;rdp</text>
</g>
<!-- Firewall::::7928229913276447450&#45;&gt;Network::::5680022698000383250 -->
<g id="edge3" class="edge">
<title>Firewall::::7928229913276447450&#45;&gt;Network::::5680022698000383250</title>
<path fill="none" stroke="#707070" d="M195.42,-252C210.37,-252 225.67,-252 239.4,-252"/>
<polygon fill="#707070" stroke="#707070" points="239.56,-255.5 249.56,-252 239.56,-248.5 239.56,-255.5"/>
</g>
<!-- Firewall::::6768724644711627482 -->
<g id="node5" class="node">
<title>Firewall::::6768724644711627482</title>
<polygon fill="#e5e5e5" stroke="#dddddd" points="195,-205 43,-205 43,-147 195,-147 195,-205"/>
<text text-anchor="start" x="55" y="-185.2" font-family="Helvetica,sans-Serif" font-weight="bold" font-size="16.00" fill="#707070">Firewall</text>
<text text-anchor="start" x="55" y="-160.2" font-family="Helvetica,sans-Serif" font-size="16.00" fill="#383838">default&#45;allow&#45;ssh</text>
</g>
<!-- Firewall::::6768724644711627482&#45;&gt;Network::::5680022698000383250 -->
<g id="edge4" class="edge">
<title>Firewall::::6768724644711627482&#45;&gt;Network::::5680022698000383250</title>
<path fill="none" stroke="#707070" d="M193.66,-205.01C200.57,-207.96 207.44,-210.99 214,-214 222.72,-218.01 231.89,-222.51 240.69,-226.98"/>
<polygon fill="#707070" stroke="#707070" points="239.19,-230.14 249.68,-231.6 242.39,-223.91 239.19,-230.14"/>
</g>
<!-- SubNetwork::::2973680933396806376 -->
<g id="node6" class="node">
<title>SubNetwork::::2973680933396806376</title>
<polygon fill="#e5e5e5" stroke="#dddddd" points="169,-129 69,-129 69,-71 169,-71 169,-129"/>
<text text-anchor="start" x="81" y="-109.2" font-family="Helvetica,sans-Serif" font-weight="bold" font-size="16.00" fill="#707070">SubNetwork</text>
<text text-anchor="start" x="81" y="-84.2" font-family="Helvetica,sans-Serif" font-size="16.00" fill="#383838">default</text>
</g>
<!-- SubNetwork::::2973680933396806376&#45;&gt;Network::::5680022698000383250 -->
<g id="edge5" class="edge">
<title>SubNetwork::::2973680933396806376&#45;&gt;Network::::5680022698000383250</title>
<path fill="none" stroke="#707070" d="M169.48,-113.54C184.85,-119.36 201.12,-127.34 214,-138 238.62,-158.36 257.78,-189.16 270.36,-213.61"/>
<polygon fill="#707070" stroke="#707070" points="267.27,-215.25 274.86,-222.64 273.54,-212.13 267.27,-215.25"/>
</g>
</g>
</svg>
