<?xml version="1.0" encoding="UTF-8" standalone="no"?>
<!DOCTYPE svg PUBLIC "-//W3C//DTD SVG 1.1//EN"
 "http://www.w3.org/Graphics/SVG/1.1/DTD/svg11.dtd">
<!-- Generated by graphviz version 2.42.3 ()
 -->
<!-- Title: graphname Pages: 1 -->
<svg width="540pt" height="789pt"
 viewBox="0.00 0.00 540.00 789.00" xmlns="http://www.w3.org/2000/svg" xmlns:xlink="http://www.w3.org/1999/xlink">
<g id="graph0" class="graph" transform="scale(1 1) rotate(0) translate(4 785)">
<title>graphname</title>
<polygon fill="#fafafa" stroke="transparent" points="-4,4 -4,-785 536,-785 536,4 -4,4"/>
<g id="clust1" class="cluster">
<title>cluster_google</title>
<polygon fill="#f5f5f5" stroke="#f5f5f5" points="8,-8 8,-773 524,-773 524,-8 8,-8"/>
<text text-anchor="start" x="210" y="-23" font-family="Helvetica,sans-Serif" font-weight="bold" font-size="20.00" fill="#707070">Provider google</text>
</g>
<g id="clust2" class="cluster">
<title>cluster_google_</title>
<polygon fill="#eeeeee" stroke="#eeeeee" points="16,-54 16,-765 516,-765 516,-54 16,-54"/>
<text text-anchor="start" x="262" y="-58.2" font-family="Helvetica,sans-Serif" font-size="1.00" fill="#383838"> </text>
</g>
<!-- Network::::5680022698000383250 -->
<g id="node1" class="node">
<title>Network::::5680022698000383250</title>
<polygon fill="#e5e5e5" stroke="#dddddd" points="508,-491 431,-491 431,-433 508,-433 508,-491"/>
<text text-anchor="start" x="443.5" y="-471.2" font-family="Helvetica,sans-Serif" font-weight="bold" font-size="16.00" fill="#707070">Network</text>
<text text-anchor="start" x="443.5" y="-446.2" font-family="Helvetica,sans-Serif" font-size="16.00" fill="#383838">default</text>
</g>
<!-- Address::::5911922250192779818 -->
<g id="node2" class="node">
<title>Address::::5911922250192779818</title>
<polygon fill="#e5e5e5" stroke="#dddddd" points="169,-529 24,-529 24,-471 169,-471 169,-529"/>
<text text-anchor="start" x="36.5" y="-509.2" font-family="Helvetica,sans-Serif" font-weight="bold" font-size="16.00" fill="#707070">Address</text>
<text text-anchor="start" x="36.5" y="-484.2" font-family="Helvetica,sans-Serif" font-size="16.00" fill="#383838">ip&#45;webserver&#45;dev</text>
</g>
<!-- Disk::::2485919257279855148 -->
<g id="node3" class="node">
<title>Disk::::2485919257279855148</title>
<polygon fill="#e5e5e5" stroke="#dddddd" points="342.5,-149 257.5,-149 257.5,-91 342.5,-91 342.5,-149"/>
<text text-anchor="start" x="270" y="-129.2" font-family="Helvetica,sans-Serif" font-weight="bold" font-size="16.00" fill="#707070">Disk</text>
<text text-anchor="start" x="270" y="-104.2" font-family="Helvetica,sans-Serif" font-size="16.00" fill="#383838">disk&#45;dev</text>
</g>
<!-- Disk::::5687790618801601075 -->
<g id="node4" class="node">
<title>Disk::::5687790618801601075</title>
<polygon fill="#e5e5e5" stroke="#dddddd" points="361,-225 239,-225 239,-167 361,-167 361,-225"/>
<text text-anchor="start" x="251" y="-205.2" font-family="Helvetica,sans-Serif" font-weight="bold" font-size="16.00" fill="#707070">Disk</text>
<text text-anchor="start" x="251" y="-180.2" font-family="Helvetica,sans-Serif" font-size="16.00" fill="#383838">webserver&#45;dev</text>
</g>
<!-- Firewall::::7304994523283192538 -->
<g id="node5" class="node">
<title>Firewall::::7304994523283192538</title>
<polygon fill="#e5e5e5" stroke="#dddddd" points="380,-757 220,-757 220,-699 380,-699 380,-757"/>
<text text-anchor="start" x="232" y="-737.2" font-family="Helvetica,sans-Serif" font-weight="bold" font-size="16.00" fill="#707070">Firewall</text>
<text text-anchor="start" x="232" y="-712.2" font-family="Helvetica,sans-Serif" font-size="16.00" fill="#383838">default&#45;allow&#45;icmp</text>
</g>
<!-- Firewall::::7304994523283192538&#45;&gt;Network::::5680022698000383250 -->
<g id="edge1" class="edge">
<title>Firewall::::7304994523283192538&#45;&gt;Network::::5680022698000383250</title>
<path fill="none" stroke="#707070" d="M380.38,-702.32C385.72,-698.73 390.68,-694.64 395,-690 444.19,-637.12 460.46,-551.07 465.85,-501.19"/>
<polygon fill="#707070" stroke="#707070" points="469.34,-501.41 466.84,-491.11 462.37,-500.72 469.34,-501.41"/>
</g>
<!-- Firewall::::5070337938415942362 -->
<g id="node6" class="node">
<title>Firewall::::5070337938415942362</title>
<polygon fill="#e5e5e5" stroke="#dddddd" points="395,-681 205,-681 205,-623 395,-623 395,-681"/>
<text text-anchor="start" x="217" y="-661.2" font-family="Helvetica,sans-Serif" font-weight="bold" font-size="16.00" fill="#707070">Firewall</text>
<text text-anchor="start" x="217" y="-636.2" font-family="Helvetica,sans-Serif" font-size="16.00" fill="#383838">default&#45;allow&#45;internal</text>
</g>
<!-- Firewall::::5070337938415942362&#45;&gt;Network::::5680022698000383250 -->
<g id="edge2" class="edge">
<title>Firewall::::5070337938415942362&#45;&gt;Network::::5680022698000383250</title>
<path fill="none" stroke="#707070" d="M383.75,-622.97C387.75,-620.23 391.53,-617.25 395,-614 427.92,-583.19 447.81,-534.53 458.45,-500.59"/>
<polygon fill="#707070" stroke="#707070" points="461.81,-501.59 461.34,-491.01 455.1,-499.57 461.81,-501.59"/>
</g>
<!-- Firewall::::7928229913276447450 -->
<g id="node7" class="node">
<title>Firewall::::7928229913276447450</title>
<polygon fill="#e5e5e5" stroke="#dddddd" points="376,-605 224,-605 224,-547 376,-547 376,-605"/>
<text text-anchor="start" x="236" y="-585.2" font-family="Helvetica,sans-Serif" font-weight="bold" font-size="16.00" fill="#707070">Firewall</text>
<text text-anchor="start" x="236" y="-560.2" font-family="Helvetica,sans-Serif" font-size="16.00" fill="#383838">default&#45;allow&#45;rdp</text>
</g>
<!-- Firewall::::7928229913276447450&#45;&gt;Network::::5680022698000383250 -->
<g id="edge3" class="edge">
<title>Firewall::::7928229913276447450&#45;&gt;Network::::5680022698000383250</title>
<path fill="none" stroke="#707070" d="M376.36,-548.9C382.85,-545.57 389.16,-541.94 395,-538 410.9,-527.28 426.07,-512.65 438.45,-499.09"/>
<polygon fill="#707070" stroke="#707070" points="441.38,-501.06 445.4,-491.26 436.15,-496.41 441.38,-501.06"/>
</g>
<!-- Firewall::::6768724644711627482 -->
<g id="node8" class="node">
<title>Firewall::::6768724644711627482</title>
<polygon fill="#e5e5e5" stroke="#dddddd" points="376,-529 224,-529 224,-471 376,-471 376,-529"/>
<text text-anchor="start" x="236" y="-509.2" font-family="Helvetica,sans-Serif" font-weight="bold" font-size="16.00" fill="#707070">Firewall</text>
<text text-anchor="start" x="236" y="-484.2" font-family="Helvetica,sans-Serif" font-size="16.00" fill="#383838">default&#45;allow&#45;ssh</text>
</g>
<!-- Firewall::::6768724644711627482&#45;&gt;Network::::5680022698000383250 -->
<g id="edge4" class="edge">
<title>Firewall::::6768724644711627482&#45;&gt;Network::::5680022698000383250</title>
<path fill="none" stroke="#707070" d="M376.42,-482.89C391.51,-479.47 406.97,-475.96 420.8,-472.82"/>
<polygon fill="#707070" stroke="#707070" points="421.59,-476.23 430.56,-470.61 420.04,-469.41 421.59,-476.23"/>
</g>
<!-- Firewall::::8126123421952637484 -->
<g id="node9" class="node">
<title>Firewall::::8126123421952637484</title>
<polygon fill="#e5e5e5" stroke="#dddddd" points="395,-453 205,-453 205,-395 395,-395 395,-453"/>
<text text-anchor="start" x="217" y="-433.2" font-family="Helvetica,sans-Serif" font-weight="bold" font-size="16.00" fill="#707070">Firewall</text>
<text text-anchor="start" x="217" y="-408.2" font-family="Helvetica,sans-Serif" font-size="16.00" fill="#383838">firewall&#45;22&#45;80&#45;433&#45;dev</text>
</g>
<!-- Firewall::::8126123421952637484&#45;&gt;Network::::5680022698000383250 -->
<g id="edge5" class="edge">
<title>Firewall::::8126123421952637484&#45;&gt;Network::::5680022698000383250</title>
<path fill="none" stroke="#707070" d="M395.03,-445.33C404.04,-447.38 412.9,-449.39 421.16,-451.26"/>
<polygon fill="#707070" stroke="#707070" points="420.39,-454.68 430.92,-453.47 421.94,-447.85 420.39,-454.68"/>
</g>
<!-- Firewall::::4259354452579318316 -->
<g id="node10" class="node">
<title>Firewall::::4259354452579318316</title>
<polygon fill="#e5e5e5" stroke="#dddddd" points="376,-377 224,-377 224,-319 376,-319 376,-377"/>
<text text-anchor="start" x="236" y="-357.2" font-family="Helvetica,sans-Serif" font-weight="bold" font-size="16.00" fill="#707070">Firewall</text>
<text text-anchor="start" x="236" y="-332.2" font-family="Helvetica,sans-Serif" font-size="16.00" fill="#383838">firewall&#45;icmp&#45;dev</text>
</g>
<!-- Firewall::::4259354452579318316&#45;&gt;Network::::5680022698000383250 -->
<g id="edge6" class="edge">
<title>Firewall::::4259354452579318316&#45;&gt;Network::::5680022698000383250</title>
<path fill="none" stroke="#707070" d="M376.36,-375.1C382.85,-378.43 389.16,-382.06 395,-386 410.9,-396.72 426.07,-411.35 438.45,-424.91"/>
<polygon fill="#707070" stroke="#707070" points="436.15,-427.59 445.4,-432.74 441.38,-422.94 436.15,-427.59"/>
</g>
<!-- SubNetwork::::2973680933396806376 -->
<g id="node11" class="node">
<title>SubNetwork::::2973680933396806376</title>
<polygon fill="#e5e5e5" stroke="#dddddd" points="350,-301 250,-301 250,-243 350,-243 350,-301"/>
<text text-anchor="start" x="262" y="-281.2" font-family="Helvetica,sans-Serif" font-weight="bold" font-size="16.00" fill="#707070">SubNetwork</text>
<text text-anchor="start" x="262" y="-256.2" font-family="Helvetica,sans-Serif" font-size="16.00" fill="#383838">default</text>
</g>
<!-- SubNetwork::::2973680933396806376&#45;&gt;Network::::5680022698000383250 -->
<g id="edge7" class="edge">
<title>SubNetwork::::2973680933396806376&#45;&gt;Network::::5680022698000383250</title>
<path fill="none" stroke="#707070" d="M350.31,-284.27C366.02,-290.05 382.53,-298.33 395,-310 427.92,-340.81 447.81,-389.47 458.45,-423.41"/>
<polygon fill="#707070" stroke="#707070" points="455.1,-424.43 461.34,-432.99 461.81,-422.41 455.1,-424.43"/>
</g>
<!-- VmInstance::::8642807777208039987 -->
<g id="node12" class="node">
<title>VmInstance::::8642807777208039987</title>
<polygon fill="#e5e5e5" stroke="#dddddd" points="157.5,-187 35.5,-187 35.5,-129 157.5,-129 157.5,-187"/>
<text text-anchor="start" x="47.5" y="-167.2" font-family="Helvetica,sans-Serif" font-weight="bold" font-size="16.00" fill="#707070">VmInstance</text>
<text text-anchor="start" x="47.5" y="-142.2" font-family="Helvetica,sans-Serif" font-size="16.00" fill="#383838">webserver&#45;dev</text>
</g>
<!-- VmInstance::::8642807777208039987&#45;&gt;Network::::5680022698000383250 -->
<g id="edge8" class="edge">
<title>VmInstance::::8642807777208039987&#45;&gt;Network::::5680022698000383250</title>
<path fill="none" stroke="#707070" d="M127.59,-128.99C147.73,-111.66 175.81,-91.28 205,-82 285.48,-56.42 329.87,-28.26 395,-82 447.05,-124.94 462.67,-334.38 466.98,-422.65"/>
<polygon fill="#707070" stroke="#707070" points="463.49,-422.97 467.45,-432.8 470.49,-422.64 463.49,-422.97"/>
</g>
<!-- VmInstance::::8642807777208039987&#45;&gt;Disk::::2485919257279855148 -->
<g id="edge11" class="edge">
<title>VmInstance::::8642807777208039987&#45;&gt;Disk::::2485919257279855148</title>
<path fill="none" stroke="#707070" d="M157.68,-146.65C186.17,-141.28 219.85,-134.93 247.18,-129.77"/>
<polygon fill="#707070" stroke="#707070" points="248.14,-133.15 257.32,-127.86 246.84,-126.27 248.14,-133.15"/>
</g>
<!-- VmInstance::::8642807777208039987&#45;&gt;Disk::::5687790618801601075 -->
<g id="edge10" class="edge">
<title>VmInstance::::8642807777208039987&#45;&gt;Disk::::5687790618801601075</title>
<path fill="none" stroke="#707070" d="M157.68,-169.35C180.01,-173.56 205.52,-178.37 228.67,-182.74"/>
<polygon fill="#707070" stroke="#707070" points="228.3,-186.23 238.78,-184.64 229.6,-179.35 228.3,-186.23"/>
</g>
<!-- VmInstance::::8642807777208039987&#45;&gt;SubNetwork::::2973680933396806376 -->
<g id="edge9" class="edge">
<title>VmInstance::::8642807777208039987&#45;&gt;SubNetwork::::2973680933396806376</title>
<path fill="none" stroke="#707070" d="M134.42,-187.32C154.55,-202.46 180.33,-220.53 205,-234 216.09,-240.06 228.36,-245.71 240.27,-250.7"/>
<polygon fill="#707070" stroke="#707070" points="239.13,-254.02 249.71,-254.56 241.78,-247.54 239.13,-254.02"/>
</g>
</g>
</svg>
